<?xml version="1.0" encoding="UTF-8" standalone="no"?><svg xmlns="http://www.w3.org/2000/svg" xmlns:xlink="http://www.w3.org/1999/xlink" contentStyleType="text/css" height="1297px" preserveAspectRatio="none" style="width:1258px;height:1297px;background:#FFFFFF;" version="1.1" viewBox="0 0 1258 1297" width="1258px" zoomAndPan="magnify"><defs><filter height="1" id="b12n7fj8luwpui0" width="1" x="0" y="0"><feFlood flood-color="#90EE90" result="flood"/><feComposite in="SourceGraphic" in2="flood" operator="over"/></filter><filter height="1" id="b12n7fj8luwpui1" width="1" x="0" y="0"><feFlood flood-color="#FFE4B5" result="flood"/><feComposite in="SourceGraphic" in2="flood" operator="over"/></filter></defs><g><rect fill="#FFFFFF" height="42.5938" id="_title" style="stroke:none;stroke-width:1.0;" width="398" x="423" y="5"/><text fill="#000000" font-family="Helvetica" font-size="14" font-weight="bold" lengthAdjust="spacing" textLength="388" x="428" y="22.9951">Arquitectura del Sistema Distribuido - File Search</text><text fill="#000000" font-family="Helvetica" font-size="14" font-weight="bold" lengthAdjust="spacing" textLength="383" x="430.5" y="39.292">Modelo PRIMARY-BACKUP con Alta Disponibilidad</text><!--MD5=[962cb8cc3ae8f68e863e6542b58a5845]
cluster cliente_layer--><g id="cluster_cliente_layer"><rect fill="#E8F4FC" height="721.5" rx="7.5" ry="7.5" style="stroke:#181818;stroke-width:1.0;" width="374" x="7" y="60.5938"/><text fill="#000000" font-family="Helvetica" font-size="11" font-weight="bold" lengthAdjust="spacing" textLength="142" x="123" y="72.8042">CAPA DE CLIENTE (HA)</text></g><!--MD5=[6c8df75217432f693edd8532f298d487]
cluster client_cluster--><g id="cluster_client_cluster"><rect fill="#F0F8FF" height="642.5" rx="7.5" ry="7.5" style="stroke:#181818;stroke-width:1.0;" width="310" x="39" y="107.5938"/><text fill="#000000" font-family="Helvetica" font-size="11" font-weight="bold" lengthAdjust="spacing" textLength="153" x="117.5" y="119.8042">Client Cluster (3 nodos)</text><text fill="#000000" font-family="Helvetica" font-size="11" font-weight="bold" lengthAdjust="spacing" textLength="290" x="51" y="132.6089">Interfaz web con resolución DNS y reintentos</text></g><!--MD5=[68fa17af063553ff2c55efa314169889]
cluster dns_layer--><g id="cluster_dns_layer"><rect fill="#F5EEF8" height="705" rx="7.5" ry="7.5" style="stroke:#181818;stroke-width:1.0;" width="343" x="405" y="277.5938"/><text fill="#000000" font-family="Helvetica" font-size="11" font-weight="bold" lengthAdjust="spacing" textLength="115" x="519" y="289.8042">CAPA DE DNS (HA)</text></g><!--MD5=[6c58256f279c3dfd02c5cf31abe148ae]
cluster dns_cluster--><g id="cluster_dns_cluster"><rect fill="#FAF0FA" height="626" rx="7.5" ry="7.5" style="stroke:#181818;stroke-width:1.0;" width="279" x="437" y="324.5938"/><text fill="#000000" font-family="Helvetica" font-size="11" font-weight="bold" lengthAdjust="spacing" textLength="192" x="480.5" y="336.8042">DNS Service Cluster (3 nodos)</text><text fill="#000000" font-family="Helvetica" font-size="11" font-weight="bold" lengthAdjust="spacing" textLength="255" x="453" y="349.6089">Coordinación de roles y descubrimiento</text></g><!--MD5=[ea4be1bfd5310d8283e3958adcf40b9d]
cluster server_layer--><g id="cluster_server_layer"><rect fill="#FDF2E9" height="696" rx="7.5" ry="7.5" style="stroke:#181818;stroke-width:1.0;" width="480" x="772" y="507.5938"/><text fill="#000000" font-family="Helvetica" font-size="11" font-weight="bold" lengthAdjust="spacing" textLength="192" x="916" y="519.8042">CAPA DE SERVIDORES API (HA)</text></g><!--MD5=[90fb279322d7d053957db96b808d16b5]
cluster server_cluster--><g id="cluster_server_cluster"><rect fill="#FEF9E7" height="617" rx="7.5" ry="7.5" style="stroke:#181818;stroke-width:1.0;" width="416" x="804" y="554.5938"/><text fill="#000000" font-family="Helvetica" font-size="11" font-weight="bold" lengthAdjust="spacing" textLength="180" x="922" y="566.8042">API Server Cluster (3 nodos)</text><text fill="#000000" font-family="Helvetica" font-size="11" font-weight="bold" lengthAdjust="spacing" textLength="307" x="858.5" y="579.6089">Cada servidor contiene: API + SQLite + Archivos</text><text fill="#000000" font-family="Helvetica" font-size="11" font-weight="bold" lengthAdjust="spacing" textLength="215" x="906.5" y="592.4136">Sincronización cada 10 segundos</text></g><!--MD5=[f7cc5c61b7c1e20a423a6719b20390ac]
cluster server1_box--><g id="cluster_server1_box"><rect fill="#90EE90" height="111" rx="7.5" ry="7.5" style="stroke:#181818;stroke-width:1.0;" width="344" x="844" y="627.5938"/><text fill="#000000" font-family="Helvetica" font-size="11" font-weight="bold" lengthAdjust="spacing" textLength="54" x="954.5" y="639.8042">server_1</text><text fill="#000000" font-family="Helvetica" font-size="11" font-weight="bold" lengthAdjust="spacing" textLength="65" x="1012.5" y="639.8042">(PRIMARY)</text><text fill="#000000" font-family="Helvetica" font-size="11" font-weight="bold" lengthAdjust="spacing" textLength="62" x="985" y="652.6089">Port 8000</text></g><!--MD5=[4c0a0cd404aaeaf25784c85ee5ace5c3]
cluster server2_box--><g id="cluster_server2_box"><rect fill="#FFE4B5" height="111" rx="7.5" ry="7.5" style="stroke:#181818;stroke-width:1.0;" width="344" x="844" y="828.0938"/><text fill="#000000" font-family="Helvetica" font-size="11" font-weight="bold" lengthAdjust="spacing" textLength="120" x="956" y="840.3042">server_2 (BACKUP)</text><text fill="#000000" font-family="Helvetica" font-size="11" font-weight="bold" lengthAdjust="spacing" textLength="62" x="985" y="853.1089">Port 8001</text></g><!--MD5=[07480b68af76b6ea6d2ce51ed886b65c]
cluster server3_box--><g id="cluster_server3_box"><rect fill="#FFE4B5" height="111" rx="7.5" ry="7.5" style="stroke:#181818;stroke-width:1.0;" width="344" x="844" y="1028.5938"/><text fill="#000000" font-family="Helvetica" font-size="11" font-weight="bold" lengthAdjust="spacing" textLength="120" x="956" y="1040.8042">server_3 (BACKUP)</text><text fill="#000000" font-family="Helvetica" font-size="11" font-weight="bold" lengthAdjust="spacing" textLength="62" x="985" y="1053.6089">Port 8002</text></g><!--MD5=[93332a8572591d97ac3d7d93f487262b]
entity client1--><g id="elem_client1"><rect fill="#90EE90" height="58.4141" rx="7.5" ry="7.5" style="stroke:#181818;stroke-width:0.5;" width="93" x="201.5" y="159.5938"/><text fill="#000000" font-family="Helvetica" font-size="11" lengthAdjust="spacing" textLength="43" x="211.5" y="179.8042">client_1</text><text fill="#000000" font-family="Helvetica" font-size="11" font-weight="bold" lengthAdjust="spacing" textLength="65" x="211.5" y="192.6089">(PRIMARY)</text><text fill="#000000" font-family="Helvetica" font-size="11" lengthAdjust="spacing" textLength="73" x="211.5" y="205.4136">Puerto: 8501</text></g><!--MD5=[8114dbb7027f683df91a35cf885956a2]
entity client2--><g id="elem_client2"><rect fill="#FFE4B5" height="58.4141" rx="7.5" ry="7.5" style="stroke:#181818;stroke-width:0.5;" width="93" x="201.5" y="376.5938"/><text fill="#000000" font-family="Helvetica" font-size="11" lengthAdjust="spacing" textLength="43" x="211.5" y="396.8042">client_2</text><text fill="#000000" font-family="Helvetica" font-size="11" lengthAdjust="spacing" textLength="53" x="211.5" y="409.6089">(BACKUP)</text><text fill="#000000" font-family="Helvetica" font-size="11" lengthAdjust="spacing" textLength="73" x="211.5" y="422.4136">Puerto: 8502</text></g><!--MD5=[2070200cdb767c5b844c435ba56ba8ba]
entity client3--><g id="elem_client3"><rect fill="#FFE4B5" height="58.4141" rx="7.5" ry="7.5" style="stroke:#181818;stroke-width:0.5;" width="93" x="201.5" y="668.0938"/><text fill="#000000" font-family="Helvetica" font-size="11" lengthAdjust="spacing" textLength="43" x="211.5" y="688.3042">client_3</text><text fill="#000000" font-family="Helvetica" font-size="11" lengthAdjust="spacing" textLength="53" x="211.5" y="701.1089">(BACKUP)</text><text fill="#000000" font-family="Helvetica" font-size="11" lengthAdjust="spacing" textLength="73" x="211.5" y="713.9136">Puerto: 8503</text></g><!--MD5=[6422eafcdd615d390a894519a07d2da0]
entity dns1--><g id="elem_dns1"><rect fill="#90EE90" height="58.4141" rx="7.5" ry="7.5" style="stroke:#181818;stroke-width:0.5;" width="93" x="519.5" y="376.5938"/><text fill="#000000" font-family="Helvetica" font-size="11" lengthAdjust="spacing" textLength="34" x="529.5" y="396.8042">dns_1</text><text fill="#000000" font-family="Helvetica" font-size="11" font-weight="bold" lengthAdjust="spacing" textLength="65" x="529.5" y="409.6089">(PRIMARY)</text><text fill="#000000" font-family="Helvetica" font-size="11" lengthAdjust="spacing" textLength="73" x="529.5" y="422.4136">Puerto: 5353</text></g><!--MD5=[62a02d48d028bdd31b8f3ab641ea9a8e]
entity dns2--><g id="elem_dns2"><rect fill="#FFE4B5" height="58.4141" rx="7.5" ry="7.5" style="stroke:#181818;stroke-width:0.5;" width="93" x="519.5" y="668.0938"/><text fill="#000000" font-family="Helvetica" font-size="11" lengthAdjust="spacing" textLength="34" x="529.5" y="688.3042">dns_2</text><text fill="#000000" font-family="Helvetica" font-size="11" lengthAdjust="spacing" textLength="53" x="529.5" y="701.1089">(BACKUP)</text><text fill="#000000" font-family="Helvetica" font-size="11" lengthAdjust="spacing" textLength="73" x="529.5" y="713.9136">Puerto: 5354</text></g><!--MD5=[6392489accbedb805e4fb1dced59b1b2]
entity dns3--><g id="elem_dns3"><rect fill="#FFE4B5" height="58.4141" rx="7.5" ry="7.5" style="stroke:#181818;stroke-width:0.5;" width="93" x="519.5" y="868.5938"/><text fill="#000000" font-family="Helvetica" font-size="11" lengthAdjust="spacing" textLength="34" x="529.5" y="888.8042">dns_3</text><text fill="#000000" font-family="Helvetica" font-size="11" lengthAdjust="spacing" textLength="53" x="529.5" y="901.6089">(BACKUP)</text><text fill="#000000" font-family="Helvetica" font-size="11" lengthAdjust="spacing" textLength="73" x="529.5" y="914.4136">Puerto: 5355</text></g><!--MD5=[fbb702e39ef844435d7c52fff4a03a03]
entity s1_api--><g id="elem_s1_api"><rect fill="#B3E5FC" height="42.8047" rx="2.5" ry="2.5" style="stroke:#1976D2;stroke-width:0.5;" width="81" x="1090.5" y="675.5938"/><rect fill="#B3E5FC" height="10" style="stroke:#1976D2;stroke-width:0.5;" width="15" x="1151.5" y="680.5938"/><rect fill="#B3E5FC" height="2" style="stroke:#1976D2;stroke-width:0.5;" width="4" x="1149.5" y="682.5938"/><rect fill="#B3E5FC" height="2" style="stroke:#1976D2;stroke-width:0.5;" width="4" x="1149.5" y="686.5938"/><text fill="#000000" font-family="Helvetica" font-size="11" lengthAdjust="spacing" textLength="41" x="1105.5" y="705.8042">FastAPI</text></g><!--MD5=[5ff8a95443597c1da06d25e56ab42408]
entity s1_db--><g id="elem_s1_db"><path d="M860.5,686.0938 C860.5,676.0938 899,676.0938 899,676.0938 C899,676.0938 937.5,676.0938 937.5,686.0938 L937.5,707.8984 C937.5,717.8984 899,717.8984 899,717.8984 C899,717.8984 860.5,717.8984 860.5,707.8984 L860.5,686.0938 " fill="#FFCDD2" style="stroke:#C62828;stroke-width:0.5;"/><path d="M860.5,686.0938 C860.5,696.0938 899,696.0938 899,696.0938 C899,696.0938 937.5,696.0938 937.5,686.0938 " fill="none" style="stroke:#C62828;stroke-width:0.5;"/><text fill="#000000" font-family="Helvetica" font-size="11" lengthAdjust="spacing" textLength="57" x="870.5" y="710.3042">SQLite DB</text></g><!--MD5=[62a48ceb5bf626d3dd6bbc8135d40a99]
entity s1_files--><g id="elem_s1_files"><path d="M975,671.5938 L1016,671.5938 A3.75,3.75 0 0 1 1018.5,674.0938 L1025.5,692.5938 L1053,692.5938 A2.5,2.5 0 0 1 1055.5,695.0938 L1055.5,719.8984 A2.5,2.5 0 0 1 1053,722.3984 L975,722.3984 A2.5,2.5 0 0 1 972.5,719.8984 L972.5,674.0938 A2.5,2.5 0 0 1 975,671.5938 " fill="#FFF9C4" style="stroke:#F9A825;stroke-width:0.5;"/><line style="stroke:#F9A825;stroke-width:0.5;" x1="972.5" x2="1025.5" y1="692.5938" y2="692.5938"/><text fill="#000000" font-family="Helvetica" font-size="11" lengthAdjust="spacing" textLength="53" x="982.5" y="709.8042">/app/files</text></g><!--MD5=[f9538a3bec34bede07c8b2aa8fe54d1f]
entity s2_api--><g id="elem_s2_api"><rect fill="#B3E5FC" height="42.8047" rx="2.5" ry="2.5" style="stroke:#1976D2;stroke-width:0.5;" width="81" x="1090.5" y="876.0938"/><rect fill="#B3E5FC" height="10" style="stroke:#1976D2;stroke-width:0.5;" width="15" x="1151.5" y="881.0938"/><rect fill="#B3E5FC" height="2" style="stroke:#1976D2;stroke-width:0.5;" width="4" x="1149.5" y="883.0938"/><rect fill="#B3E5FC" height="2" style="stroke:#1976D2;stroke-width:0.5;" width="4" x="1149.5" y="887.0938"/><text fill="#000000" font-family="Helvetica" font-size="11" lengthAdjust="spacing" textLength="41" x="1105.5" y="906.3042">FastAPI</text></g><!--MD5=[f1780f40c44d807cb15cac1b59b2f7ee]
entity s2_db--><g id="elem_s2_db"><path d="M860.5,886.5938 C860.5,876.5938 899,876.5938 899,876.5938 C899,876.5938 937.5,876.5938 937.5,886.5938 L937.5,908.3984 C937.5,918.3984 899,918.3984 899,918.3984 C899,918.3984 860.5,918.3984 860.5,908.3984 L860.5,886.5938 " fill="#FFCDD2" style="stroke:#C62828;stroke-width:0.5;"/><path d="M860.5,886.5938 C860.5,896.5938 899,896.5938 899,896.5938 C899,896.5938 937.5,896.5938 937.5,886.5938 " fill="none" style="stroke:#C62828;stroke-width:0.5;"/><text fill="#000000" font-family="Helvetica" font-size="11" lengthAdjust="spacing" textLength="57" x="870.5" y="910.8042">SQLite DB</text></g><!--MD5=[9b6798731136c56c4cf896dbcbef5a13]
entity s2_files--><g id="elem_s2_files"><path d="M975,872.0938 L1016,872.0938 A3.75,3.75 0 0 1 1018.5,874.5938 L1025.5,893.0938 L1053,893.0938 A2.5,2.5 0 0 1 1055.5,895.5938 L1055.5,920.3984 A2.5,2.5 0 0 1 1053,922.8984 L975,922.8984 A2.5,2.5 0 0 1 972.5,920.3984 L972.5,874.5938 A2.5,2.5 0 0 1 975,872.0938 " fill="#FFF9C4" style="stroke:#F9A825;stroke-width:0.5;"/><line style="stroke:#F9A825;stroke-width:0.5;" x1="972.5" x2="1025.5" y1="893.0938" y2="893.0938"/><text fill="#000000" font-family="Helvetica" font-size="11" lengthAdjust="spacing" textLength="53" x="982.5" y="910.3042">/app/files</text></g><!--MD5=[289dcb130182a16958d6a5a6817a1d6f]
entity s3_api--><g id="elem_s3_api"><rect fill="#B3E5FC" height="42.8047" rx="2.5" ry="2.5" style="stroke:#1976D2;stroke-width:0.5;" width="81" x="1090.5" y="1076.5938"/><rect fill="#B3E5FC" height="10" style="stroke:#1976D2;stroke-width:0.5;" width="15" x="1151.5" y="1081.5938"/><rect fill="#B3E5FC" height="2" style="stroke:#1976D2;stroke-width:0.5;" width="4" x="1149.5" y="1083.5938"/><rect fill="#B3E5FC" height="2" style="stroke:#1976D2;stroke-width:0.5;" width="4" x="1149.5" y="1087.5938"/><text fill="#000000" font-family="Helvetica" font-size="11" lengthAdjust="spacing" textLength="41" x="1105.5" y="1106.8042">FastAPI</text></g><!--MD5=[ce052ad161e59e2fc156e995aca6f49e]
entity s3_db--><g id="elem_s3_db"><path d="M860.5,1087.0938 C860.5,1077.0938 899,1077.0938 899,1077.0938 C899,1077.0938 937.5,1077.0938 937.5,1087.0938 L937.5,1108.8984 C937.5,1118.8984 899,1118.8984 899,1118.8984 C899,1118.8984 860.5,1118.8984 860.5,1108.8984 L860.5,1087.0938 " fill="#FFCDD2" style="stroke:#C62828;stroke-width:0.5;"/><path d="M860.5,1087.0938 C860.5,1097.0938 899,1097.0938 899,1097.0938 C899,1097.0938 937.5,1097.0938 937.5,1087.0938 " fill="none" style="stroke:#C62828;stroke-width:0.5;"/><text fill="#000000" font-family="Helvetica" font-size="11" lengthAdjust="spacing" textLength="57" x="870.5" y="1111.3042">SQLite DB</text></g><!--MD5=[6aa81d5130b09aa2b97841f8c4555435]
entity s3_files--><g id="elem_s3_files"><path d="M975,1072.5938 L1016,1072.5938 A3.75,3.75 0 0 1 1018.5,1075.0938 L1025.5,1093.5938 L1053,1093.5938 A2.5,2.5 0 0 1 1055.5,1096.0938 L1055.5,1120.8984 A2.5,2.5 0 0 1 1053,1123.3984 L975,1123.3984 A2.5,2.5 0 0 1 972.5,1120.8984 L972.5,1075.0938 A2.5,2.5 0 0 1 975,1072.5938 " fill="#FFF9C4" style="stroke:#F9A825;stroke-width:0.5;"/><line style="stroke:#F9A825;stroke-width:0.5;" x1="972.5" x2="1025.5" y1="1093.5938" y2="1093.5938"/><text fill="#000000" font-family="Helvetica" font-size="11" lengthAdjust="spacing" textLength="53" x="982.5" y="1110.8042">/app/files</text></g><!--MD5=[b351fbc19ba4e1dfc6e2e50efd021634]
link client1 to client2--><g id="link_client1_client2"><path d="M248,222.9438 C248,263.3038 248,330.8438 248,371.2138 " fill="none" id="client1-client2" style="stroke:#181818;stroke-width:1.0;stroke-dasharray:7.0,7.0;"/><polygon fill="#181818" points="248,376.4838,252,367.4838,248,371.4838,244,367.4838,248,376.4838" style="stroke:#181818;stroke-width:1.0;"/><polygon fill="#181818" points="248,217.7038,244,226.7038,248,222.7038,252,226.7038,248,217.7038" style="stroke:#181818;stroke-width:1.0;"/><text fill="#000000" font-family="Helvetica" font-size="11" lengthAdjust="spacing" textLength="26" x="249" y="258.8042">sync</text></g><!--MD5=[99d68865f9b08145d88ebf568508f7ba]
link client2 to client3--><g id="link_client2_client3"><path d="M248,439.6537 C248,495.2938 248,607.0538 248,662.8338 " fill="none" id="client2-client3" style="stroke:#181818;stroke-width:1.0;stroke-dasharray:7.0,7.0;"/><polygon fill="#181818" points="248,668.0538,252,659.0538,248,663.0538,244,659.0538,248,668.0538" style="stroke:#181818;stroke-width:1.0;"/><polygon fill="#181818" points="248,434.6138,244,443.6138,248,439.6138,252,443.6138,248,434.6138" style="stroke:#181818;stroke-width:1.0;"/><text fill="#000000" font-family="Helvetica" font-size="11" lengthAdjust="spacing" textLength="26" x="249" y="482.3042">sync</text></g><!--MD5=[db5f9902863d14ad57bb915d6ad5c8cc]
link dns1 to dns2--><g id="link_dns1_dns2"><path d="M566,439.6537 C566,495.2938 566,607.0538 566,662.8338 " fill="none" id="dns1-dns2" style="stroke:#181818;stroke-width:1.0;stroke-dasharray:7.0,7.0;"/><polygon fill="#181818" points="566,668.0538,570,659.0538,566,663.0538,562,659.0538,566,668.0538" style="stroke:#181818;stroke-width:1.0;"/><polygon fill="#181818" points="566,434.6138,562,443.6138,566,439.6138,570,443.6138,566,434.6138" style="stroke:#181818;stroke-width:1.0;"/><text fill="#000000" font-family="Helvetica" font-size="11" lengthAdjust="spacing" textLength="26" x="567" y="482.3042">sync</text></g><!--MD5=[e68f01b8a268534c7f6e764acb4379ac]
link dns2 to dns3--><g id="link_dns2_dns3"><path d="M566,731.1338 C566,767.7238 566,826.3838 566,863.1338 " fill="none" id="dns2-dns3" style="stroke:#181818;stroke-width:1.0;stroke-dasharray:7.0,7.0;"/><polygon fill="#181818" points="566,868.3938,570,859.3938,566,863.3938,562,859.3938,566,868.3938" style="stroke:#181818;stroke-width:1.0;"/><polygon fill="#181818" points="566,726.1138,562,735.1138,566,731.1138,570,735.1138,566,726.1138" style="stroke:#181818;stroke-width:1.0;"/><text fill="#000000" font-family="Helvetica" font-size="11" lengthAdjust="spacing" textLength="26" x="567" y="809.3042">sync</text></g><!--MD5=[1c6528eecfbf686e19ebdefa9bb2540c]
link s1_db to s2_db--><g id="link_s1_db_s2_db"><path d="M899,718.2238 C899,754.6338 899,831.3538 899,871.2638 " fill="none" id="s1_db-to-s2_db" style="stroke:#E74C3C;stroke-width:2.0;"/><polygon fill="#E74C3C" points="899,876.4137,903,867.4137,899,871.4137,895,867.4137,899,876.4137" style="stroke:#E74C3C;stroke-width:2.0;"/><text fill="#000000" font-family="Helvetica" font-size="11" lengthAdjust="spacing" textLength="26" x="900" y="809.3042">sync</text></g><!--MD5=[17bc9bc5426ce357b0495d1446431d4a]
reverse link s2_db to s3_db--><g id="link_s2_db_s3_db"><path d="M899,923.8638 C899,963.7338 899,1040.4638 899,1076.9138 " fill="none" id="s2_db-backto-s3_db" style="stroke:#E74C3C;stroke-width:2.0;"/><polygon fill="#E74C3C" points="899,918.7238,895,927.7238,899,923.7238,903,927.7238,899,918.7238" style="stroke:#E74C3C;stroke-width:2.0;"/><text fill="#000000" font-family="Helvetica" font-size="11" lengthAdjust="spacing" textLength="26" x="900" y="1009.8042">sync</text></g><!--MD5=[0c289afe2fafbf9a35a5263474ddc268]
link s1_files to s2_files--><g id="link_s1_files_s2_files"><path d="M1014,722.8338 C1014,759.3338 1014,827.5238 1014,866.7538 " fill="none" id="s1_files-to-s2_files" style="stroke:#27AE60;stroke-width:2.0;"/><polygon fill="#27AE60" points="1014,871.8538,1018,862.8538,1014,866.8538,1010,862.8538,1014,871.8538" style="stroke:#27AE60;stroke-width:2.0;"/></g><!--MD5=[a949c2fa1105af0b788e679e81b2cd8e]
reverse link s2_files to s3_files--><g id="link_s2_files_s3_files"><path d="M1014,928.4337 C1014,967.6637 1014,1035.8538 1014,1072.3538 " fill="none" id="s2_files-backto-s3_files" style="stroke:#27AE60;stroke-width:2.0;"/><polygon fill="#27AE60" points="1014,923.3338,1010,932.3338,1014,928.3338,1018,932.3338,1014,923.3338" style="stroke:#27AE60;stroke-width:2.0;"/></g><!--MD5=[70ba83555b157c54113043278a4a4875]
link client_cluster to dns_cluster--><g id="link_client_cluster_dns_cluster"><path d="M349.3556,189.1129 C350.0273,189.0828 350.7365,189.0527 351.4821,189.0231 C357.447,188.7858 365.7434,188.5773 375.813,188.6345 C395.9522,188.7491 423.1844,189.9269 453.0438,194.065 C512.7625,202.3413 582.99,222.4588 628,269.5938 C638.4625,280.5513 645.6531,294.2913 650.5486,308.7806 C651.7725,312.403 652.8529,316.0721 653.8051,319.7564 C654.0432,320.6775 654.2732,321.5995 654.4955,322.5219 C654.6066,322.9831 654.7158,323.4445 654.8231,323.9059 " fill="none" id="client_cluster-to-dns_cluster" style="stroke:#3498DB;stroke-width:2.0;"/><polygon fill="#3498DB" points="654.8231,323.9059,656.6809,314.2338,653.6907,319.0358,648.8888,316.0456,654.8231,323.9059" style="stroke:#3498DB;stroke-width:2.0;"/><text fill="#000000" font-family="Helvetica" font-size="11" lengthAdjust="spacing" textLength="114" x="617" y="258.8042">GET /server/resolve</text></g><!--MD5=[445e62484894367fb5718d9fd0bd2866]
link dns_cluster to server_cluster--><g id="link_dns_cluster_server_cluster"><path d="M716.2767,514.9676 C716.8482,516.049 717.4213,517.1333 717.9958,518.2203 C719.1447,520.3941 720.2991,522.5786 721.458,524.7714 C726.0937,533.5428 730.8006,542.4489 735.5075,551.355 C754.335,586.9794 773.1619,622.6028 787.4263,649.5945 C790.9923,656.3425 794.2733,662.5509 797.1978,668.085 C798.66,670.8521 800.0332,673.4505 801.3083,675.8636 C801.9459,677.0701 802.5589,678.2302 803.1464,679.3419 C803.2932,679.6198 803.4385,679.8947 803.5821,680.1666 C803.6539,680.3025 803.7253,680.4376 803.7964,680.572 " fill="none" id="dns_cluster-to-server_cluster" style="stroke:#9B59B6;stroke-width:2.0;"/><polygon fill="#9B59B6" points="803.7964,680.572,803.1282,670.7458,801.4604,676.1513,796.055,674.4834,803.7964,680.572" style="stroke:#9B59B6;stroke-width:2.0;"/><text fill="#000000" font-family="Helvetica" font-size="11" lengthAdjust="spacing" textLength="74" x="701" y="475.8042">Coordinación</text><text fill="#000000" font-family="Helvetica" font-size="11" lengthAdjust="spacing" textLength="47" x="714.5" y="488.6089">de roles</text></g><rect fill="#FFFFFF" height="64.8906" id="_legend" rx="7.5" ry="7.5" style="stroke:#000000;stroke-width:1.0;" width="266" x="970" y="1216.5938"/><text fill="#000000" font-family="Helvetica" font-size="14" font-weight="bold" lengthAdjust="spacing" textLength="42" x="981" y="1237.5889">Color</text><text fill="#000000" font-family="Helvetica" font-size="14" font-weight="bold" lengthAdjust="spacing" textLength="86" x="1033" y="1237.5889">Significado</text><text fill="#000000" font-family="Helvetica" font-size="14" lengthAdjust="spacing" textLength="4" x="976" y="1253.8857"> </text><text fill="#000000" filter="url(#b12n7fj8luwpui0)" font-family="Helvetica" font-size="14" lengthAdjust="spacing" textLength="20" x="980" y="1253.8857">     </text><text fill="#000000" font-family="Helvetica" font-size="14" lengthAdjust="spacing" textLength="4" x="1000" y="1253.8857"> </text><text fill="#000000" font-family="Helvetica" font-size="14" lengthAdjust="spacing" textLength="157" x="1032" y="1253.8857">PRIMARY (Nodo activo)</text><text fill="#000000" font-family="Helvetica" font-size="14" lengthAdjust="spacing" textLength="4" x="976" y="1270.1826"> </text><text fill="#000000" filter="url(#b12n7fj8luwpui1)" font-family="Helvetica" font-size="14" lengthAdjust="spacing" textLength="20" x="980" y="1270.1826">     </text><text fill="#000000" font-family="Helvetica" font-size="14" lengthAdjust="spacing" textLength="4" x="1000" y="1270.1826"> </text><text fill="#000000" font-family="Helvetica" font-size="14" lengthAdjust="spacing" textLength="194" x="1032" y="1270.1826">BACKUP (Nodo de respaldo)</text><line style="stroke:#000000;stroke-width:1.0;" x1="976" x2="1230" y1="1224.5938" y2="1224.5938"/><line style="stroke:#000000;stroke-width:1.0;" x1="976" x2="1230" y1="1240.8906" y2="1240.8906"/><line style="stroke:#000000;stroke-width:1.0;" x1="976" x2="1230" y1="1257.1875" y2="1257.1875"/><line style="stroke:#000000;stroke-width:1.0;" x1="976" x2="1230" y1="1273.4844" y2="1273.4844"/><line style="stroke:#000000;stroke-width:1.0;" x1="976" x2="976" y1="1224.5938" y2="1273.4844"/><line style="stroke:#000000;stroke-width:1.0;" x1="1028" x2="1028" y1="1224.5938" y2="1273.4844"/><line style="stroke:#000000;stroke-width:1.0;" x1="1230" x2="1230" y1="1224.5938" y2="1273.4844"/><!--MD5=[7230f67cf4f8a990abf76ebbd8d98efc]
@startuml
!define PRIMARY_COLOR #90EE90
!define BACKUP_COLOR #FFE4B5
!define CLIENT_BG #e8f4fc
!define DNS_BG #f5eef8
!define SERVER_BG #fdf2e9

skinparam backgroundColor white
skinparam defaultFontName Helvetica
skinparam defaultFontSize 11

skinparam rectangle {
    roundCorner 15
}

skinparam component {
    BackgroundColor #B3E5FC
    BorderColor #1976D2
}

skinparam database {
    BackgroundColor #FFCDD2
    BorderColor #C62828
}

skinparam folder {
    BackgroundColor #FFF9C4
    BorderColor #F9A825
}

title Arquitectura del Sistema Distribuido - File Search\nModelo PRIMARY-BACKUP con Alta Disponibilidad

' ========== CAPA DE CLIENTE ==========
rectangle "**CAPA DE CLIENTE (HA)**" as cliente_layer CLIENT_BG {
    rectangle "Client Cluster (3 nodos)\n Interfaz web con resolución DNS y reintentos" as client_cluster #f0f8ff {
        rectangle "client_1\n**(PRIMARY)**\nPuerto: 8501" as client1 PRIMARY_COLOR
        rectangle "client_2\n(BACKUP)\nPuerto: 8502" as client2 BACKUP_COLOR
        rectangle "client_3\n(BACKUP)\nPuerto: 8503" as client3 BACKUP_COLOR
        
        client1 <-[dashed]-> client2 : sync
        client2 <-[dashed]-> client3 : sync
    }
 
}

' ========== CAPA DE DNS ==========
rectangle "**CAPA DE DNS (HA)**" as dns_layer DNS_BG {
    rectangle "DNS Service Cluster (3 nodos)\n  Coordinación de roles y descubrimiento" as dns_cluster #faf0fa {
        rectangle "dns_1\n**(PRIMARY)**\nPuerto: 5353" as dns1 PRIMARY_COLOR
        rectangle "dns_2\n(BACKUP)\nPuerto: 5354" as dns2 BACKUP_COLOR
        rectangle "dns_3\n(BACKUP)\nPuerto: 5355" as dns3 BACKUP_COLOR
        
        dns1 <-[dashed]-> dns2 : sync
        dns2 <-[dashed]-> dns3 : sync
    }
    
}

' ========== CAPA DE SERVIDORES API ==========
rectangle "**CAPA DE SERVIDORES API (HA)**" as server_layer SERVER_BG {
    rectangle "API Server Cluster (3 nodos)\nCada servidor contiene: API + SQLite + Archivos\n Sincronización cada 10 segundos" as server_cluster #fef9e7 {
        
        rectangle "server_1 **(PRIMARY)**\nPort 8000" as server1_box PRIMARY_COLOR {
            component "FastAPI" as s1_api
            database "SQLite DB" as s1_db
            folder "/app/files" as s1_files
        }
        
        rectangle "server_2 (BACKUP)\nPort 8001" as server2_box BACKUP_COLOR {
            component "FastAPI" as s2_api
            database "SQLite DB" as s2_db
            folder "/app/files" as s2_files
        }
        
        rectangle "server_3 (BACKUP)\nPort 8002" as server3_box BACKUP_COLOR {
            component "FastAPI" as s3_api
            database "SQLite DB" as s3_db
            folder "/app/files" as s3_files
        }
        
        s1_db -[#e74c3c,bold]-> s2_db : sync
        s2_db <-[#e74c3c,bold]- s3_db : sync
        s1_files -[#27ae60,bold]-> s2_files
        s2_files <-[#27ae60,bold]- s3_files
    }
    
}

' ========== CONEXIONES ENTRE CAPAS ==========
client_cluster -[#3498db,bold]-> dns_cluster : "GET /server/resolve"
dns_cluster -[#9b59b6,bold]-> server_cluster : "Coordinación\nde roles"

' ========== LEYENDA ==========
legend right
    |= Color |= Significado |
    | <back:PRIMARY_COLOR>     </back> | PRIMARY (Nodo activo) |
    | <back:BACKUP_COLOR>     </back> | BACKUP (Nodo de respaldo) |
endlegend
@enduml

@startuml

skinparam backgroundColor white
skinparam defaultFontName Helvetica
skinparam defaultFontSize 11

skinparam rectangle {
    roundCorner 15
}

skinparam component {
    BackgroundColor #B3E5FC
    BorderColor #1976D2
}

skinparam database {
    BackgroundColor #FFCDD2
    BorderColor #C62828
}

skinparam folder {
    BackgroundColor #FFF9C4
    BorderColor #F9A825
}

title Arquitectura del Sistema Distribuido - File Search\nModelo PRIMARY-BACKUP con Alta Disponibilidad

rectangle "**CAPA DE CLIENTE (HA)**" as cliente_layer #e8f4fc {
    rectangle "Client Cluster (3 nodos)\n Interfaz web con resolución DNS y reintentos" as client_cluster #f0f8ff {
        rectangle "client_1\n**(PRIMARY)**\nPuerto: 8501" as client1 #90EE90
        rectangle "client_2\n(BACKUP)\nPuerto: 8502" as client2 #FFE4B5
        rectangle "client_3\n(BACKUP)\nPuerto: 8503" as client3 #FFE4B5
        
        client1 <-[dashed]-> client2 : sync
        client2 <-[dashed]-> client3 : sync
    }
 
}

rectangle "**CAPA DE DNS (HA)**" as dns_layer #f5eef8 {
    rectangle "DNS Service Cluster (3 nodos)\n  Coordinación de roles y descubrimiento" as dns_cluster #faf0fa {
        rectangle "dns_1\n**(PRIMARY)**\nPuerto: 5353" as dns1 #90EE90
        rectangle "dns_2\n(BACKUP)\nPuerto: 5354" as dns2 #FFE4B5
        rectangle "dns_3\n(BACKUP)\nPuerto: 5355" as dns3 #FFE4B5
        
        dns1 <-[dashed]-> dns2 : sync
        dns2 <-[dashed]-> dns3 : sync
    }
    
}

rectangle "**CAPA DE SERVIDORES API (HA)**" as server_layer #fdf2e9 {
    rectangle "API Server Cluster (3 nodos)\nCada servidor contiene: API + SQLite + Archivos\n Sincronización cada 10 segundos" as server_cluster #fef9e7 {
        
        rectangle "server_1 **(PRIMARY)**\nPort 8000" as server1_box #90EE90 {
            component "FastAPI" as s1_api
            database "SQLite DB" as s1_db
            folder "/app/files" as s1_files
        }
        
        rectangle "server_2 (BACKUP)\nPort 8001" as server2_box #FFE4B5 {
            component "FastAPI" as s2_api
            database "SQLite DB" as s2_db
            folder "/app/files" as s2_files
        }
        
        rectangle "server_3 (BACKUP)\nPort 8002" as server3_box #FFE4B5 {
            component "FastAPI" as s3_api
            database "SQLite DB" as s3_db
            folder "/app/files" as s3_files
        }
        
        s1_db -[#e74c3c,bold]-> s2_db : sync
        s2_db <-[#e74c3c,bold]- s3_db : sync
        s1_files -[#27ae60,bold]-> s2_files
        s2_files <-[#27ae60,bold]- s3_files
    }
    
}

client_cluster -[#3498db,bold]-> dns_cluster : "GET /server/resolve"
dns_cluster -[#9b59b6,bold]-> server_cluster : "Coordinación\nde roles"

legend right
    |= Color |= Significado |
    | <back:#90EE90>     </back> | PRIMARY (Nodo activo) |
    | <back:#FFE4B5>     </back> | BACKUP (Nodo de respaldo) |
endlegend
@enduml

PlantUML version 1.2022.7(Mon Aug 22 17:01:30 UTC 2022)
(GPL source distribution)
Java Runtime: OpenJDK Runtime Environment
JVM: OpenJDK 64-Bit Server VM
Default Encoding: UTF-8
Language: en
Country: null
--></g></svg>